<?xml version="1.0" standalone="no"?>
<!DOCTYPE svg PUBLIC "-//W3C//DTD SVG 20010904//EN"
 "http://www.w3.org/TR/2001/REC-SVG-20010904/DTD/svg10.dtd">
<svg version="1.0" xmlns="http://www.w3.org/2000/svg"
 width="1051.500000pt" height="827.434761pt" viewBox="0 0 1051.500000 827.434761"
 preserveAspectRatio="xMidYMid meet">
<metadata>
Created by potrace 1.12, written by Peter Selinger 2001-2015
</metadata>
<g transform="translate(-129.500000,1109.030671) scale(0.100000,-0.100000)"
fill="#000000" stroke="none">
<path d="M10010 10480 l0 -610 -610 0 -610 0 0 -284 c0 -250 2 -285 16 -290 9
-3 283 -6 610 -6 l594 0 0 -610 0 -610 288 2 287 3 3 608 2 607 594 0 c327 0
601 3 610 6 14 5 16 40 16 290 l0 284 -610 0 -610 0 -2 608 -3 607 -287 3
-288 2 0 -610z"/>
<path d="M5670 9314 c-651 -81 -1158 -481 -1370 -1079 -90 -255 -110 -532 -60
-824 27 -155 63 -260 145 -426 315 -633 1011 -988 1705 -869 211 36 382 99
564 206 385 227 644 585 753 1038 34 141 43 426 20 576 -109 686 -620 1221
-1293 1354 -106 21 -375 35 -464 24z"/>
<path d="M2880 8131 c-285 -65 -506 -232 -652 -493 -167 -298 -163 -687 10
-970 164 -269 412 -440 716 -494 350 -61 729 95 949 391 33 44 71 103 84 130
l25 51 -55 114 c-70 143 -99 229 -136 406 -44 206 -54 317 -46 484 l7 145 -71
53 c-97 72 -198 125 -311 163 -89 30 -106 32 -265 35 -141 3 -185 1 -255 -15z"/>
<path d="M8383 8140 c-161 -25 -349 -113 -465 -218 l-38 -34 0 -187 c0 -191
-20 -376 -56 -519 -25 -100 -88 -264 -136 -354 l-43 -79 33 -63 c74 -143 227
-300 376 -385 368 -210 775 -182 1114 76 166 127 273 284 348 513 26 79 28 96
28 260 1 160 -1 183 -26 270 -51 181 -115 295 -245 431 -122 128 -274 220
-444 270 -59 17 -106 22 -234 25 -88 1 -183 -1 -212 -6z"/>
<path d="M2890 5799 c-252 -33 -337 -51 -505 -105 -398 -130 -744 -367 -926
-636 -59 -87 -115 -212 -141 -314 -21 -84 -23 -110 -23 -434 l0 -345 667 -3
666 -2 7 52 c26 210 123 466 258 680 208 329 585 669 979 882 48 26 90 51 93
56 8 12 -13 22 -134 64 -269 94 -679 139 -941 105z"/>
<path d="M8305 5796 c-258 -32 -621 -131 -601 -165 3 -5 41 -28 84 -52 323
-177 678 -478 874 -739 190 -255 336 -585 365 -827 l6 -53 664 0 664 0 -3 378
-3 377 -32 92 c-58 167 -105 248 -218 377 -194 222 -540 430 -890 534 -252 75
-652 109 -910 78z"/>
<path d="M5590 5643 c-85 -4 -234 -23 -355 -44 -506 -87 -957 -264 -1353 -531
-191 -129 -427 -351 -550 -516 -146 -197 -252 -444 -281 -656 -12 -88 -15
-1076 -3 -1077 4 0 1258 -1 2787 -2 l2780 -1 0 534 c0 476 -2 543 -18 607 -83
343 -226 587 -497 846 -435 417 -1016 691 -1710 806 -209 35 -534 49 -800 34z"/>
</g>
</svg>
