<?xml version="1.0" standalone="no"?>
<!DOCTYPE svg PUBLIC "-//W3C//DTD SVG 20010904//EN"
 "http://www.w3.org/TR/2001/REC-SVG-20010904/DTD/svg10.dtd">
<svg version="1.0" xmlns="http://www.w3.org/2000/svg"
 width="1052.173143pt" height="705.074360pt" viewBox="0 0 1052.173143 705.074360"
 preserveAspectRatio="xMidYMid meet">
<metadata>
Created by potrace 1.12, written by Peter Selinger 2001-2015
</metadata>
<g transform="translate(-128.826857,987.000000) scale(0.100000,-0.100000)"
fill="#000000" stroke="none">
<path d="M8790 9585 l0 -285 1510 0 1510 0 0 285 0 285 -1510 0 -1510 0 0
-285z"/>
<path d="M5690 9314 c-14 -2 -59 -9 -100 -15 -594 -84 -1093 -499 -1293 -1075
-104 -299 -108 -720 -10 -1013 155 -462 528 -849 976 -1016 218 -80 475 -117
677 -97 304 30 538 109 765 257 362 235 605 586 706 1020 16 68 22 137 26 280
4 165 2 206 -16 310 -50 276 -182 565 -350 765 -315 376 -780 595 -1251 589
-58 -1 -116 -3 -130 -5z"/>
<path d="M2950 8144 c-155 -29 -297 -83 -404 -155 -409 -275 -560 -834 -340
-1260 59 -115 122 -196 226 -294 103 -97 211 -164 342 -210 240 -86 443 -85
688 5 213 78 446 287 530 476 l19 45 -34 62 c-65 119 -114 259 -151 427 -50
231 -59 319 -52 500 l7 155 -64 48 c-99 74 -209 132 -315 167 -91 30 -108 32
-262 35 -91 2 -176 2 -190 -1z"/>
<path d="M8383 8140 c-127 -19 -283 -83 -398 -165 -110 -78 -103 -57 -108
-320 -6 -345 -49 -540 -173 -791 -63 -130 -64 -122 22 -251 137 -206 345 -355
589 -420 135 -36 348 -38 467 -5 187 51 356 149 487 281 93 94 160 196 205
314 68 177 71 196 70 382 -1 155 -3 178 -28 260 -112 368 -387 631 -738 705
-97 21 -289 25 -395 10z"/>
<path d="M2850 5794 c-283 -34 -527 -106 -775 -229 -175 -87 -302 -175 -432
-299 -166 -158 -273 -327 -324 -511 -21 -74 -23 -106 -27 -437 l-4 -358 670 0
c746 0 682 -7 682 70 0 55 54 256 95 356 112 270 247 468 474 695 193 192 385
338 611 464 163 90 155 85 133 99 -28 19 -150 62 -254 90 -265 69 -581 92
-849 60z"/>
<path d="M8280 5790 c-198 -27 -291 -47 -425 -91 -133 -43 -151 -52 -141 -68
4 -6 60 -42 125 -80 417 -246 750 -564 959 -915 68 -113 134 -263 175 -396 30
-95 57 -219 57 -256 l0 -24 668 2 667 3 3 190 c1 105 -1 273 -7 375 -8 167
-12 195 -40 277 -61 184 -126 288 -270 432 -139 140 -268 230 -488 340 -121
60 -336 140 -446 165 -283 64 -582 80 -837 46z"/>
<path d="M5595 5643 c-171 -9 -452 -55 -663 -109 -527 -133 -1016 -392 -1359
-718 -218 -208 -356 -405 -448 -644 -80 -207 -78 -192 -82 -804 -4 -448 -2
-548 9 -548 7 0 1257 0 2778 0 1521 -1 2771 -1 2778 -1 11 1 13 98 9 539 l-3
537 -27 101 c-45 174 -128 363 -217 494 -198 292 -550 587 -930 780 -569 288
-1164 409 -1845 373z"/>
</g>
</svg>
