<?xml version="1.0" standalone="no"?>
<!DOCTYPE svg PUBLIC "-//W3C//DTD SVG 20010904//EN"
 "http://www.w3.org/TR/2001/REC-SVG-20010904/DTD/svg10.dtd">
<svg version="1.0" xmlns="http://www.w3.org/2000/svg"
 width="714.135967pt" height="693.000000pt" viewBox="0 0 714.135967 693.000000"
 preserveAspectRatio="xMidYMid meet">
<metadata>
Created by potrace 1.12, written by Peter Selinger 2001-2015
</metadata>
<g transform="translate(-283.338262,986.000000) scale(0.100000,-0.100000)"
fill="#000000" stroke="none">
<path d="M3950 7695 l0 -2165 -561 0 c-496 0 -560 -2 -555 -15 3 -8 45 -68 94
-133 49 -64 188 -250 309 -412 121 -162 325 -437 454 -610 411 -552 618 -830
901 -1214 126 -169 164 -215 172 -204 16 20 220 293 406 543 344 464 631 848
1068 1433 l454 607 -566 3 -566 2 0 2165 0 2165 -805 0 -805 0 0 -2165z"/>
<path d="M8091 9836 c-5 -13 -64 -180 -131 -372 -142 -407 -215 -616 -270
-769 -22 -60 -82 -234 -135 -385 -170 -488 -246 -703 -280 -800 -135 -375
-285 -806 -285 -820 0 -6 126 -10 348 -10 l347 0 34 113 c19 61 54 171 77 242
24 72 57 177 75 235 17 58 33 106 34 108 1 2 256 3 566 3 538 1 564 0 567 -18
2 -10 53 -168 114 -350 l110 -333 353 0 c201 0 356 4 359 9 4 5 -17 71 -45
148 -61 167 -294 819 -354 993 -24 69 -78 222 -120 340 -42 118 -92 258 -110
310 -18 52 -59 167 -90 255 -105 295 -152 429 -230 650 -74 212 -153 437 -162
463 -4 9 -90 12 -384 12 l-379 0 -9 -24z m539 -1176 c44 -151 109 -365 144
-475 35 -110 67 -210 71 -222 l6 -23 -381 0 c-360 0 -382 1 -375 18 18 48 47
140 184 587 78 256 159 544 186 660 5 25 13 4 45 -120 22 -83 75 -274 120
-425z"/>
<path d="M7360 5829 l0 -291 740 3 c407 2 740 1 740 -4 0 -4 -31 -46 -68 -95
-91 -116 -193 -250 -552 -722 -164 -217 -346 -456 -402 -530 -57 -74 -182
-238 -277 -365 -96 -126 -191 -251 -213 -276 l-38 -47 0 -286 0 -286 1190 0
1190 0 0 290 0 290 -780 0 c-429 0 -780 3 -780 7 0 4 31 48 69 97 37 50 149
199 247 331 317 424 1096 1457 1161 1540 l63 80 0 278 0 277 -1145 0 -1145 0
0 -291z"/>
</g>
</svg>
